<svg width="66" height="70" viewBox="0 0 66 70" fill="none" xmlns="http://www.w3.org/2000/svg">
<path d="M33 67C25.0435 67 17.4129 63.892 11.7868 58.3596C6.1607 52.8273 3 45.3239 3 37.5C3 29.6761 6.1607 22.1727 11.7868 16.6404C17.4129 11.108 25.0435 8 33 8" stroke="#0C1424" stroke-width="5"/>
<path d="M63 37C63 44.9565 59.8393 52.5871 54.2132 58.2132C48.5871 63.8393 40.9565 67 33 67C25.0435 67 17.4129 63.8393 11.7868 58.2132C6.16071 52.5871 3 44.9565 3 37" stroke="#0C1424" stroke-width="5"/>
<mask id="path-3-inside-1_317_203" fill="white">
<path fill-rule="evenodd" clip-rule="evenodd" d="M59.172 3.02278L55.344 3.02278L55.3465 7.944C55.3484 11.9193 55.3687 12.89 55.4516 12.9943C55.5469 13.1139 55.8201 13.1233 59.2302 13.1233C62.5108 13.1233 62.9111 13.1107 62.9531 13.0066C62.9789 12.9425 63 10.6699 63 7.95639L63 3.02278L59.172 3.02278ZM53.6236 0.0339142C53.5704 0.0143767 51.8911 0.00707712 49.892 0.0176199L46.2573 0.0368624L46.2377 8.01847L46.218 16L49.9497 15.9809L53.6813 15.9617L53.701 8.01552C53.7167 1.69755 53.7008 0.0620776 53.6236 0.0339142ZM42.2423 -9.07346e-07C40.9911 -9.6204e-07 39.9123 0.0201259 39.845 0.0447504C39.7725 0.0712919 39.7227 0.176278 39.7227 0.302792C39.7227 0.420091 39.6879 0.516083 39.6453 0.516083C39.6028 0.516083 39.568 0.599025 39.568 0.700399C39.568 0.815117 39.5242 0.884714 39.452 0.884714C39.3798 0.884714 39.336 0.954312 39.336 1.06903C39.336 1.1704 39.3012 1.25335 39.2587 1.25335C39.2161 1.25335 39.1813 1.31859 39.1813 1.39829C39.1813 1.5599 38.943 2.08748 38.8527 2.12575C38.8207 2.13931 38.7947 2.23051 38.7947 2.3285C38.7947 2.42648 38.7599 2.50669 38.7173 2.50669C38.6748 2.50669 38.64 2.57408 38.64 2.65643C38.64 2.73886 38.5878 2.82534 38.524 2.84863C38.4602 2.87201 38.408 2.95627 38.408 3.0359C38.408 3.37755 38.318 3.39141 36.0935 3.39141L34 3.39141L34 7.63067L34 11.8699L35.9278 11.8699C37.5383 11.8699 37.8747 11.8881 37.9716 11.9805C38.0354 12.0413 38.11 12.0911 38.1373 12.0911C38.2018 12.0911 38.408 12.2877 38.408 12.3491C38.408 12.3752 38.4602 12.4463 38.524 12.5071C38.5878 12.568 38.64 12.6983 38.64 12.7967C38.64 12.8952 38.6748 12.9758 38.7173 12.9758C38.7599 12.9758 38.7947 13.0892 38.7947 13.2277C38.7947 13.3663 38.8207 13.4907 38.8527 13.5042C38.943 13.5425 39.1813 14.0701 39.1813 14.2317C39.1813 14.3114 39.2161 14.3766 39.2587 14.3766C39.3012 14.3766 39.336 14.4892 39.336 14.6268C39.336 14.7812 39.3804 14.8931 39.452 14.9194C39.5198 14.9442 39.568 15.0547 39.568 15.1853C39.568 15.3082 39.6028 15.4088 39.6453 15.4088C39.6879 15.4088 39.7227 15.4941 39.7227 15.5983C39.7227 15.9937 39.7531 15.9986 42.2305 15.9986L44.5173 15.9986L44.5173 7.9993L44.5173 -8.07903e-07L42.2423 -9.07346e-07Z"/>
</mask>
<path fill-rule="evenodd" clip-rule="evenodd" d="M59.172 3.02278L55.344 3.02278L55.3465 7.944C55.3484 11.9193 55.3687 12.89 55.4516 12.9943C55.5469 13.1139 55.8201 13.1233 59.2302 13.1233C62.5108 13.1233 62.9111 13.1107 62.9531 13.0066C62.9789 12.9425 63 10.6699 63 7.95639L63 3.02278L59.172 3.02278ZM53.6236 0.0339142C53.5704 0.0143767 51.8911 0.00707712 49.892 0.0176199L46.2573 0.0368624L46.2377 8.01847L46.218 16L49.9497 15.9809L53.6813 15.9617L53.701 8.01552C53.7167 1.69755 53.7008 0.0620776 53.6236 0.0339142ZM42.2423 -9.07346e-07C40.9911 -9.6204e-07 39.9123 0.0201259 39.845 0.0447504C39.7725 0.0712919 39.7227 0.176278 39.7227 0.302792C39.7227 0.420091 39.6879 0.516083 39.6453 0.516083C39.6028 0.516083 39.568 0.599025 39.568 0.700399C39.568 0.815117 39.5242 0.884714 39.452 0.884714C39.3798 0.884714 39.336 0.954312 39.336 1.06903C39.336 1.1704 39.3012 1.25335 39.2587 1.25335C39.2161 1.25335 39.1813 1.31859 39.1813 1.39829C39.1813 1.5599 38.943 2.08748 38.8527 2.12575C38.8207 2.13931 38.7947 2.23051 38.7947 2.3285C38.7947 2.42648 38.7599 2.50669 38.7173 2.50669C38.6748 2.50669 38.64 2.57408 38.64 2.65643C38.64 2.73886 38.5878 2.82534 38.524 2.84863C38.4602 2.87201 38.408 2.95627 38.408 3.0359C38.408 3.37755 38.318 3.39141 36.0935 3.39141L34 3.39141L34 7.63067L34 11.8699L35.9278 11.8699C37.5383 11.8699 37.8747 11.8881 37.9716 11.9805C38.0354 12.0413 38.11 12.0911 38.1373 12.0911C38.2018 12.0911 38.408 12.2877 38.408 12.3491C38.408 12.3752 38.4602 12.4463 38.524 12.5071C38.5878 12.568 38.64 12.6983 38.64 12.7967C38.64 12.8952 38.6748 12.9758 38.7173 12.9758C38.7599 12.9758 38.7947 13.0892 38.7947 13.2277C38.7947 13.3663 38.8207 13.4907 38.8527 13.5042C38.943 13.5425 39.1813 14.0701 39.1813 14.2317C39.1813 14.3114 39.2161 14.3766 39.2587 14.3766C39.3012 14.3766 39.336 14.4892 39.336 14.6268C39.336 14.7812 39.3804 14.8931 39.452 14.9194C39.5198 14.9442 39.568 15.0547 39.568 15.1853C39.568 15.3082 39.6028 15.4088 39.6453 15.4088C39.6879 15.4088 39.7227 15.4941 39.7227 15.5983C39.7227 15.9937 39.7531 15.9986 42.2305 15.9986L44.5173 15.9986L44.5173 7.9993L44.5173 -8.07903e-07L42.2423 -9.07346e-07Z" fill="#7700FF"/>
<path d="M55.344 3.02278L55.344 -1.97722L50.3415 -1.97722L50.344 3.02529L55.344 3.02278ZM55.3465 7.944L60.3465 7.94157L60.3465 7.94149L55.3465 7.944ZM55.4516 12.9943L51.5396 16.1081L51.5401 16.1087L55.4516 12.9943ZM62.9531 13.0066L58.315 11.1389L58.3149 11.1392L62.9531 13.0066ZM63 3.02278L68 3.02278L68 -1.97722L63 -1.97722L63 3.02278ZM53.6236 0.0339142L51.9023 4.72829L51.9096 4.73095L53.6236 0.0339142ZM49.892 0.0176199L49.8656 -4.98231L49.8655 -4.98231L49.892 0.0176199ZM46.2573 0.0368624L46.2309 -4.96307L41.2696 -4.9368L41.2573 0.0245574L46.2573 0.0368624ZM46.2377 8.01847L51.2377 8.03082L51.2377 8.03077L46.2377 8.01847ZM46.218 16L41.218 15.9876L41.2055 21.0257L46.2436 20.9999L46.218 16ZM49.9497 15.9809L49.9753 20.9808L49.9754 20.9808L49.9497 15.9809ZM53.6813 15.9617L53.707 20.9617L58.6691 20.9362L58.6813 15.9741L53.6813 15.9617ZM53.701 8.01552L48.701 8.0031L48.701 8.00316L53.701 8.01552ZM39.845 0.0447504L41.5631 4.7403L41.5635 4.74014L39.845 0.0447504ZM38.8527 2.12575L36.9023 -2.47819L36.898 -2.47634L38.8527 2.12575ZM38.524 2.84863L36.8089 -1.84803L36.8042 -1.84627L38.524 2.84863ZM34 3.39141L34 -1.60859L29 -1.60859L29 3.39141L34 3.39141ZM34 11.8699L29 11.8699L29 16.8699L34 16.8699L34 11.8699ZM38.8527 13.5042L36.898 18.1063L36.9023 18.1082L38.8527 13.5042ZM39.452 14.9194L37.7313 19.614L37.7366 19.6159L39.452 14.9194ZM44.5173 15.9986L44.5173 20.9986L49.5173 20.9986L49.5173 15.9986L44.5173 15.9986ZM44.5173 -8.07903e-07L49.5173 -5.89346e-07L49.5173 -5L44.5173 -5L44.5173 -8.07903e-07ZM59.172 -1.97722L55.344 -1.97722L55.344 8.02278L59.172 8.02278L59.172 -1.97722ZM50.344 3.02529L50.3465 7.94652L60.3465 7.94149L60.344 3.02026L50.344 3.02529ZM50.3465 7.94644C50.3474 9.92306 50.3528 11.2121 50.3698 12.0249C50.3779 12.4156 50.3903 12.7974 50.4168 13.1241C50.4292 13.2765 50.4542 13.5464 50.513 13.8528C50.5425 14.0065 50.5988 14.268 50.7043 14.5774C50.7902 14.8294 51.0197 15.4549 51.5396 16.1081L59.3637 9.88041C59.6386 10.2258 59.8176 10.5457 59.9289 10.7714C60.0431 11.003 60.1196 11.2046 60.1694 11.3506C60.2654 11.6324 60.3128 11.8586 60.3338 11.968C60.3574 12.0909 60.3696 12.184 60.3751 12.2296C60.3811 12.2789 60.3836 12.3102 60.3841 12.3163C60.3849 12.3253 60.3822 12.2933 60.3784 12.1989C60.3748 12.1088 60.3711 11.9847 60.3676 11.8166C60.3532 11.1241 60.3474 9.9402 60.3465 7.94157L50.3465 7.94644ZM51.5401 16.1087C52.6143 17.4578 53.9926 17.8472 54.6607 17.9754C55.1771 18.0744 55.6795 18.0923 55.9272 18.1007C56.5417 18.1217 57.5724 18.1233 59.2302 18.1233L59.2302 8.12328C57.4779 8.12328 56.667 8.12016 56.2686 8.10655C56.1821 8.1036 56.1629 8.10154 56.1852 8.10331C56.1941 8.10402 56.3366 8.11451 56.5447 8.15442C56.7366 8.19125 57.2018 8.29221 57.7503 8.56841C58.044 8.7163 58.3505 8.90848 58.6503 9.15529C58.9516 9.40339 59.1857 9.65691 59.3632 9.87979L51.5401 16.1087ZM59.2302 18.1233C60.8342 18.1233 61.8496 18.1207 62.4627 18.1015C62.7126 18.0937 63.1751 18.0779 63.6387 18.0005C63.8487 17.9654 64.4298 17.8624 65.0878 17.545C65.8711 17.1673 66.9907 16.3657 67.5912 14.8741L58.3149 11.1392C58.5818 10.4763 58.9825 9.89494 59.4727 9.42296C59.9365 8.97652 60.4021 8.70268 60.7434 8.53804C61.3587 8.24128 61.876 8.15636 61.9913 8.13709C62.2655 8.0913 62.415 8.09813 62.1496 8.10645C61.7318 8.11953 60.9068 8.12328 59.2302 8.12328L59.2302 18.1233ZM67.5911 14.8743C67.7766 14.4138 67.8484 14.0283 67.8632 13.9517C67.8914 13.806 67.9075 13.6882 67.9154 13.6257C67.9318 13.4974 67.9401 13.393 67.9436 13.3458C67.9516 13.2408 67.9559 13.1459 67.9582 13.0895C67.9634 12.9651 67.9671 12.8208 67.9702 12.6781C67.9764 12.3842 67.9817 11.9863 67.986 11.5215C67.9947 10.5866 68 9.32402 68 7.95639L58 7.95639C58 9.30226 57.9948 10.5327 57.9864 11.4286C57.9822 11.8791 57.9774 12.231 57.9724 12.466C57.9698 12.5878 57.9677 12.6527 57.9668 12.6755C57.9661 12.6927 57.9673 12.6559 57.972 12.5926C57.974 12.5661 57.9808 12.4785 57.9955 12.3628C58.0027 12.3065 58.0179 12.1939 58.0453 12.0523C58.0593 11.9799 58.1304 11.5974 58.315 11.1389L67.5911 14.8743ZM68 7.95639L68 3.02278L58 3.02278L58 7.95639L68 7.95639ZM63 -1.97722L59.172 -1.97722L59.172 8.02278L63 8.02278L63 -1.97722ZM55.345 -4.66045C54.9428 -4.80792 54.6116 -4.86842 54.5275 -4.88395C54.3912 -4.90909 54.281 -4.92356 54.2202 -4.93099C54.0968 -4.94606 53.9971 -4.95361 53.9517 -4.95686C53.8518 -4.964 53.7642 -4.96757 53.7164 -4.96935C53.6097 -4.97333 53.4914 -4.97585 53.3825 -4.97766C53.156 -4.98144 52.8549 -4.98396 52.5093 -4.98547C51.8127 -4.9885 50.8765 -4.98764 49.8656 -4.98231L49.9184 5.01755C50.9066 5.01234 51.8095 5.01158 52.4657 5.01444C52.7964 5.01588 53.0501 5.01819 53.216 5.02095C53.2562 5.02162 53.2877 5.02226 53.3113 5.02282C53.3362 5.02342 53.3456 5.02377 53.3436 5.0237C53.3422 5.02365 53.3335 5.02332 53.3192 5.02261C53.3065 5.02198 53.2776 5.02047 53.2382 5.01765C53.2084 5.01553 53.1214 5.00913 53.0077 4.99523C52.9517 4.98839 52.8455 4.97451 52.7125 4.94996C52.6315 4.93503 52.3028 4.87513 51.9023 4.72828L55.345 -4.66045ZM49.8655 -4.98231L46.2309 -4.96307L46.2838 5.03679L49.9185 5.01755L49.8655 -4.98231ZM41.2573 0.0245574L41.2377 8.00616L51.2377 8.03077L51.2573 0.0491674L41.2573 0.0245574ZM41.2377 8.00611L41.218 15.9876L51.218 16.0124L51.2377 8.03082L41.2377 8.00611ZM46.2436 20.9999L49.9753 20.9808L49.9241 10.981L46.1924 11.0001L46.2436 20.9999ZM49.9754 20.9808L53.707 20.9617L53.6556 10.9618L49.924 10.981L49.9754 20.9808ZM58.6813 15.9741L58.701 8.02788L48.701 8.00316L48.6813 15.9494L58.6813 15.9741ZM58.701 8.02794C58.7088 4.87497 58.7089 2.85554 58.6969 1.61759C58.691 1.01141 58.6818 0.525814 58.6649 0.168509C58.6575 0.0108253 58.6433 -0.248375 58.6078 -0.520459C58.5936 -0.629491 58.5511 -0.94756 58.4411 -1.32857C58.3902 -1.50459 58.2632 -1.91742 57.9979 -2.39322C57.823 -2.70701 57.0659 -4.03247 55.3376 -4.66313L51.9096 4.73095C50.9975 4.39811 50.3757 3.87287 50.0041 3.48219C49.633 3.09191 49.3987 2.71854 49.2635 2.47593C49.0028 2.00836 48.8802 1.60709 48.8337 1.44614C48.7324 1.09526 48.6981 0.821384 48.6917 0.772107C48.6718 0.619533 48.6714 0.542084 48.6761 0.640404C48.6834 0.795107 48.6916 1.11853 48.6974 1.71448C48.7087 2.8808 48.7089 4.83809 48.701 8.0031L58.701 8.02794ZM42.2423 -5C41.5939 -5 40.9793 -4.99481 40.5064 -4.98599C40.2741 -4.98165 40.0513 -4.976 39.8667 -4.96841C39.7798 -4.96484 39.6612 -4.95926 39.5384 -4.94996C39.4814 -4.94564 39.3733 -4.93686 39.2441 -4.92057C39.1803 -4.91253 39.0688 -4.89742 38.9323 -4.87182C38.8463 -4.85567 38.521 -4.79502 38.1265 -4.65064L41.5635 4.74014C41.3417 4.82134 41.1585 4.87028 41.0527 4.89651C40.9378 4.92502 40.842 4.94438 40.7762 4.95673C40.6478 4.98081 40.5463 4.99441 40.4945 5.00095C40.389 5.01424 40.3123 5.02007 40.2936 5.02148C40.2476 5.02496 40.2341 5.02493 40.2774 5.02315C40.353 5.02004 40.4907 5.01604 40.693 5.01227C41.0891 5.00488 41.6396 5 42.2423 5L42.2423 -5ZM38.1269 -4.6508C36.4347 -4.03163 35.5938 -2.75461 35.2388 -2.00601C34.8509 -1.18782 34.7227 -0.377995 34.7227 0.302792L44.7227 0.302793C44.7227 0.857065 44.6194 1.55114 44.2744 2.27858C43.9625 2.93642 43.1828 4.14767 41.5631 4.7403L38.1269 -4.6508ZM34.7227 0.302792C34.7227 -0.0685364 34.7696 -0.617068 34.9994 -1.25082C35.1066 -1.54663 35.3514 -2.13632 35.872 -2.74643C36.3732 -3.33372 37.6292 -4.48392 39.6453 -4.48392L39.6453 5.51608C41.6827 5.51608 42.9591 4.35389 43.4787 3.74493C44.0179 3.11316 44.2793 2.49214 44.4005 2.15767C44.6583 1.4466 44.7227 0.79142 44.7227 0.302793L34.7227 0.302792ZM39.6453 -4.48392C37.8919 -4.48392 36.6766 -3.60933 36.0578 -2.98279C35.4542 -2.37163 35.1387 -1.74223 34.9801 -1.36425C34.6538 -0.586568 34.568 0.144968 34.568 0.700398L44.568 0.700399C44.568 1.15446 44.4996 1.79383 44.2013 2.5047C44.0568 2.84927 43.7579 3.4516 43.1728 4.04404C42.5725 4.65186 41.3775 5.51608 39.6453 5.51608L39.6453 -4.48392ZM34.568 0.700398C34.568 0.222439 34.6435 -0.77626 35.3057 -1.82821C36.1032 -3.09493 37.5938 -4.11529 39.452 -4.11529L39.452 5.88471C41.3824 5.88471 42.931 4.82956 43.7684 3.49936C44.4706 2.38393 44.568 1.29308 44.568 0.700399L34.568 0.700398ZM39.452 -4.11529C37.5216 -4.11529 35.973 -3.06014 35.1356 -1.72994C34.4334 -0.614505 34.336 0.476352 34.336 1.06903L44.336 1.06903C44.336 1.54699 44.2605 2.54569 43.5983 3.59764C42.8008 4.86436 41.3102 5.88471 39.452 5.88471L39.452 -4.11529ZM34.336 1.06903C34.336 0.614973 34.4044 -0.0244052 34.7027 -0.735275C34.8472 -1.07984 35.1461 -1.68217 35.7312 -2.27461C36.3315 -2.88244 37.5265 -3.74665 39.2587 -3.74665L39.2587 6.25335C41.0121 6.25335 42.2274 5.37876 42.8462 4.75222C43.4498 4.14105 43.7653 3.51166 43.9239 3.13368C44.2502 2.356 44.336 1.62446 44.336 1.06903L34.336 1.06903ZM39.2587 -3.74665C36.4792 -3.74665 35.14 -1.70877 34.7925 -1.0575C34.3238 -0.178757 34.1813 0.696295 34.1813 1.39829L44.1813 1.39829C44.1813 2.02059 44.0563 2.82317 43.6156 3.64936C43.2962 4.24808 41.9956 6.25335 39.2587 6.25335L39.2587 -3.74665ZM34.1813 1.39829C34.1813 0.888525 34.2638 0.506743 34.2912 0.384425C34.329 0.215056 34.3679 0.089274 34.3894 0.0233769C34.4326 -0.108904 34.4706 -0.197834 34.4943 -0.25031C34.5139 -0.293715 34.5702 -0.415818 34.6754 -0.587981C34.723 -0.665974 34.8432 -0.857974 35.0336 -1.08909C35.1298 -1.20587 35.298 -1.39895 35.536 -1.61201C35.7415 -1.79598 36.2037 -2.18223 36.9023 -2.47819L40.803 6.72968C42.016 6.21584 42.6831 5.35277 42.7518 5.26936C42.9725 5.00143 43.1262 4.76067 43.2089 4.62531C43.3842 4.33842 43.5169 4.06714 43.6074 3.86686C43.702 3.6575 43.8052 3.40398 43.8959 3.12613C43.928 3.02771 44.1813 2.30237 44.1813 1.39829L34.1813 1.39829ZM36.898 -2.47634C35.394 -1.83752 34.6972 -0.691602 34.502 -0.354152C34.2236 0.127182 34.0793 0.558844 34.0044 0.820702C33.8491 1.36374 33.7947 1.88043 33.7947 2.32849L43.7947 2.3285C43.7947 2.67858 43.7533 3.10068 43.619 3.57023C43.5546 3.79534 43.4228 4.19554 43.1582 4.65289C42.9769 4.96637 42.2954 6.0958 40.8074 6.72783L36.898 -2.47634ZM33.7947 2.32849C33.7947 1.85328 33.8692 1.19205 34.1852 0.463984C34.3395 0.108435 34.6512 -0.494308 35.2493 -1.07994C35.8674 -1.68522 37.0455 -2.49331 38.7173 -2.49331L38.7173 7.50669C40.4105 7.50669 41.6088 6.68857 42.2455 6.06519C42.8621 5.46146 43.1904 4.83254 43.3587 4.44469C43.7027 3.65202 43.7947 2.9017 43.7947 2.3285L33.7947 2.32849ZM38.7173 -2.49331C35.8539 -2.49331 34.5292 -0.34195 34.2202 0.25635C33.7727 1.12287 33.64 1.97747 33.64 2.65643L43.64 2.65643C43.64 3.25304 43.5247 4.03277 43.1052 4.84501C42.8243 5.38903 41.5383 7.50669 38.7173 7.50669L38.7173 -2.49331ZM33.64 2.65643C33.64 1.69208 33.9272 0.850398 34.3252 0.191062C34.6917 -0.416177 35.4529 -1.35285 36.8089 -1.84802L40.2391 7.54529C41.6589 7.02682 42.4781 6.03526 42.8867 5.35835C43.3267 4.62934 43.64 3.7032 43.64 2.65643L33.64 2.65643ZM36.8042 -1.84627C35.4305 -1.34308 34.6144 -0.394455 34.1915 0.288174C33.743 1.0123 33.408 1.95408 33.408 3.0359L43.408 3.0359C43.408 4.0381 43.0991 4.89793 42.6926 5.55417C42.3118 6.16892 41.5537 7.06372 40.2438 7.54354L36.8042 -1.84627ZM33.408 3.0359C33.408 3.01218 33.408 2.91232 33.4166 2.77822C33.4252 2.6425 33.4456 2.41742 33.5024 2.14152C33.6258 1.54203 33.9201 0.715489 34.5971 -0.0578467C35.2446 -0.797465 35.9649 -1.17033 36.4285 -1.35308C36.8651 -1.52519 37.2108 -1.5826 37.3258 -1.60026C37.5334 -1.63216 37.6068 -1.62157 37.2903 -1.61503C37.0303 -1.60966 36.6613 -1.60859 36.0935 -1.60859L36.0935 8.39141C36.9536 8.39141 38.0589 8.40442 38.8441 8.2838C39.1191 8.24156 40.815 8.02116 42.1213 6.52901C42.8415 5.70633 43.1602 4.82265 43.2972 4.15701C43.4138 3.59023 43.408 3.11657 43.408 3.0359L33.408 3.0359ZM36.0935 -1.60859L34 -1.60859L34 8.39141L36.0935 8.39141L36.0935 -1.60859ZM29 3.39141L29 7.63067L39 7.63067L39 3.39141L29 3.39141ZM29 7.63067L29 11.8699L39 11.8699L39 7.63067L29 7.63067ZM34 16.8699L35.9278 16.8699L35.9278 6.86993L34 6.86993L34 16.8699ZM35.9278 16.8699C36.7696 16.8699 37.1114 16.8759 37.2471 16.8833C37.3345 16.888 37.1281 16.884 36.815 16.8185C36.6421 16.7824 36.3226 16.7049 35.9391 16.5392C35.5336 16.3641 35.0197 16.0744 34.5215 15.5994L41.4217 8.36159C40.393 7.3808 39.2594 7.11333 38.8607 7.03001C38.4069 6.93517 37.9976 6.90926 37.7875 6.89789C37.3281 6.87303 36.6965 6.86993 35.9278 6.86993L35.9278 16.8699ZM34.5215 15.5994C34.7438 15.8114 35.0022 16.0237 35.2926 16.2175C35.4329 16.3112 35.6648 16.457 35.9655 16.5997C36.0787 16.6534 36.9467 17.0911 38.1373 17.0911L38.1373 7.09111C38.8258 7.09111 39.3539 7.23524 39.6026 7.31217C39.8893 7.40085 40.1127 7.49888 40.2523 7.5651C40.5293 7.69655 40.7334 7.82612 40.8437 7.89974C41.074 8.05345 41.2633 8.21051 41.4217 8.36159L34.5215 15.5994ZM38.1373 17.0911C37.0502 17.0911 36.2653 16.7294 36.0583 16.633C35.7409 16.4854 35.5093 16.3352 35.3876 16.2522C35.1364 16.0807 34.9572 15.9213 34.8467 15.816C34.7375 15.7119 34.5653 15.5366 34.377 15.2858C34.2866 15.1655 34.117 14.9284 33.9483 14.5987C33.8441 14.3952 33.408 13.5445 33.408 12.3491L43.408 12.3491C43.408 11.1384 42.9655 10.2682 42.8498 10.0421C42.6695 9.68985 42.4833 9.42736 42.3726 9.27996C42.1435 8.97505 41.9158 8.73907 41.747 8.57814C41.5769 8.41603 41.334 8.20364 41.026 7.99335C40.876 7.89093 40.6176 7.72495 40.2766 7.56631C40.046 7.45899 39.2406 7.09111 38.1373 7.09111L38.1373 17.0911ZM33.408 12.3491C33.408 13.6542 33.9331 14.5911 33.9848 14.6902C34.1467 15.0004 34.3102 15.2359 34.4119 15.3744C34.624 15.6633 34.8521 15.9146 35.0739 16.1261L41.9741 8.88822C42.1321 9.03885 42.3022 9.22426 42.4723 9.45583C42.5529 9.56567 42.6994 9.77474 42.8495 10.0624C42.925 10.207 43.0394 10.4433 43.1437 10.75C43.2335 11.0138 43.408 11.591 43.408 12.3491L33.408 12.3491ZM35.0739 16.1261C34.4116 15.4947 34.1018 14.84 33.9644 14.4969C33.8136 14.1205 33.64 13.5386 33.64 12.7967L43.64 12.7967C43.64 11.9565 43.4403 11.2601 43.2475 10.7788C43.068 10.3307 42.7002 9.58046 41.9741 8.88822L35.0739 16.1261ZM33.64 12.7967C33.64 13.3671 33.731 14.1148 34.0724 14.9055C34.2394 15.292 34.566 15.9212 35.1808 16.5261C35.8152 17.1501 37.016 17.9758 38.7173 17.9758L38.7173 7.97582C40.3974 7.97582 41.5779 8.79143 42.1938 9.39732C42.7902 9.98404 43.1001 10.5869 43.253 10.9409C43.5664 11.6667 43.64 12.3248 43.64 12.7967L33.64 12.7967ZM38.7173 17.9758C36.3398 17.9758 35.0462 16.4108 34.6944 15.9238C34.2557 15.3166 34.0663 14.759 33.9921 14.517C33.8246 13.9713 33.7947 13.5179 33.7947 13.2277L43.7947 13.2277C43.7947 12.7991 43.7474 12.2196 43.5518 11.5826C43.4635 11.295 43.2575 10.7004 42.8003 10.0676C42.43 9.55505 41.1162 7.97582 38.7173 7.97582L38.7173 17.9758ZM33.7947 13.2277C33.7947 13.5731 33.824 13.9903 33.9181 14.4391C33.9612 14.6446 34.0544 15.0366 34.2549 15.4915C34.3549 15.7183 34.5414 16.0993 34.8572 16.5156C35.1427 16.892 35.786 17.634 36.898 18.1063L40.8074 8.90213C41.9113 9.37104 42.5469 10.1062 42.8248 10.4727C43.133 10.8791 43.3123 11.247 43.4054 11.4581C43.592 11.8815 43.6727 12.2312 43.7052 12.3866C43.7783 12.7352 43.7947 13.0209 43.7947 13.2277L33.7947 13.2277ZM36.9023 18.1082C36.2037 17.8122 35.7415 17.4259 35.536 17.242C35.298 17.0289 35.1298 16.8358 35.0336 16.7191C34.8432 16.4879 34.723 16.2959 34.6753 16.2179C34.5702 16.0458 34.5139 15.9237 34.4943 15.8803C34.4706 15.8278 34.4326 15.7389 34.3894 15.6066C34.3679 15.5407 34.329 15.4149 34.2912 15.2455C34.2638 15.1232 34.1813 14.7414 34.1813 14.2317L44.1813 14.2317C44.1813 13.3276 43.928 12.6023 43.8959 12.5038C43.8052 12.226 43.702 11.9725 43.6074 11.7631C43.5169 11.5628 43.3842 11.2916 43.2089 11.0047C43.1262 10.8693 42.9725 10.6285 42.7518 10.3606C42.6831 10.2772 42.016 9.41413 40.803 8.90028L36.9023 18.1082ZM34.1813 14.2317C34.1813 14.9337 34.3238 15.8087 34.7925 16.6875C35.14 17.3387 36.4792 19.3766 39.2587 19.3766L39.2587 9.37662C41.9956 9.37662 43.2962 11.3819 43.6156 11.9806C44.0563 12.8068 44.1813 13.6094 44.1813 14.2317L34.1813 14.2317ZM39.2587 19.3766C36.8974 19.3766 35.6046 17.8314 35.2457 17.3382C34.8034 16.7303 34.6118 16.1711 34.5363 15.9268C34.3665 15.3774 34.336 14.9201 34.336 14.6268L44.336 14.6268C44.336 14.1959 44.2881 13.6135 44.0902 12.9734C44.0007 12.6838 43.7925 12.0878 43.3317 11.4546C42.9543 10.9359 41.6412 9.37662 39.2587 9.37662L39.2587 19.3766ZM34.336 14.6268C34.336 15.1292 34.4011 15.8618 34.719 16.6637C34.9985 17.3687 35.8048 18.9079 37.7313 19.614L41.1727 10.2248C43.0276 10.9047 43.7759 12.3747 44.0153 12.9786C44.293 13.6793 44.336 14.2787 44.336 14.6268L34.336 14.6268ZM37.7366 19.6159C35.9293 18.9558 35.1849 17.5446 34.9523 17.0115C34.6549 16.3296 34.568 15.6917 34.568 15.1853L44.568 15.1853C44.568 14.5483 44.457 13.7898 44.1185 13.0138C43.845 12.3866 43.0425 10.9078 41.1674 10.2229L37.7366 19.6159ZM34.568 15.1853C34.568 15.6555 34.6269 16.2883 34.8657 16.9783C34.9767 17.2992 35.2219 17.9145 35.7387 18.5489C36.2201 19.14 37.5108 20.4088 39.6453 20.4088L39.6453 10.4088C41.7586 10.4088 43.029 11.665 43.492 12.2334C43.9903 12.8451 44.2187 13.4276 44.3158 13.708C44.5265 14.317 44.568 14.838 44.568 15.1853L34.568 15.1853ZM39.6453 20.4088C37.8612 20.4088 36.6528 19.4949 36.0689 18.887C35.4954 18.2896 35.2072 17.6885 35.0704 17.3532C34.7864 16.657 34.7227 16.0356 34.7227 15.5983L44.7227 15.5983C44.7227 15.0569 44.6416 14.3407 44.3295 13.5757C44.1787 13.2061 43.8739 12.5771 43.2818 11.9605C42.6795 11.3333 41.4507 10.4088 39.6453 10.4088L39.6453 20.4088ZM34.7227 15.5983C34.7227 15.6262 34.7225 15.7328 34.7272 15.8582C34.7321 15.9864 34.7443 16.2039 34.7837 16.4677C34.8652 17.0134 35.0854 17.9098 35.7497 18.8057C37.0587 20.5711 38.95 20.8348 39.2595 20.8843C40.084 21.0158 41.2836 20.9986 42.2305 20.9986L42.2305 10.9986C41.5938 10.9986 41.1813 10.9981 40.8879 10.9926C40.5284 10.9858 40.6105 10.9733 40.8356 11.0092C40.9602 11.0291 41.3553 11.0968 41.8465 11.309C42.3895 11.5437 43.1533 12.0011 43.7825 12.8497C44.4053 13.6895 44.6038 14.5206 44.674 14.9905C44.7318 15.3776 44.7227 15.7004 44.7227 15.5983L34.7227 15.5983ZM42.2305 20.9986L44.5173 20.9986L44.5173 10.9986L42.2305 10.9986L42.2305 20.9986ZM49.5173 15.9986L49.5173 7.9993L39.5173 7.9993L39.5173 15.9986L49.5173 15.9986ZM49.5173 7.9993L49.5173 -5.89346e-07L39.5173 -1.02646e-06L39.5173 7.9993L49.5173 7.9993ZM44.5173 -5L42.2423 -5L42.2423 5L44.5173 5L44.5173 -5Z" fill="#0C1424" mask="url(#path-3-inside-1_317_203)"/>
</svg>
