<svg width="63" height="61" viewBox="0 0 63 61" fill="none" xmlns="http://www.w3.org/2000/svg">
<path d="M57.6711 34.0778C56.0226 34.0778 54.6862 32.7415 54.6862 31.093C54.6862 29.4445 56.0226 28.1082 57.6711 28.1082C59.3195 28.1082 60.6559 29.4445 60.6559 31.093C60.6559 32.7415 59.3195 34.0778 57.6711 34.0778Z" stroke="#0C1424" stroke-width="4.5"/>
<line x1="54.3993" y1="32.0342" x2="46.547" y2="32.0342" stroke="#0C1424" stroke-width="4.5"/>
<path d="M5.97703 34.0778C7.62551 34.0778 8.96187 32.7415 8.96187 31.093C8.96187 29.4445 7.62551 28.1082 5.97703 28.1082C4.32855 28.1082 2.99219 29.4445 2.99219 31.093C2.99219 32.7415 4.32855 34.0778 5.97703 34.0778Z" stroke="#0C1424" stroke-width="4.5"/>
<line y1="-2.25" x2="7.85226" y2="-2.25" transform="matrix(1 -8.74253e-08 -8.74253e-08 -1 9.24879 29.7842)" stroke="#0C1424" stroke-width="4.5"/>
<circle cx="18.3628" cy="8.79792" r="2.98484" transform="rotate(-30 18.3628 8.79792)" stroke="#0C1424" stroke-width="4.5"/>
<line x1="20.8139" y1="11.1606" x2="24.74" y2="17.9609" stroke="#0C1424" stroke-width="4.5"/>
<circle cx="5.23484" cy="5.23484" r="2.98484" transform="matrix(0.866025 -0.5 -0.5 -0.866025 43.6024 60.3101)" stroke="#0C1424" stroke-width="4.5"/>
<line y1="-2.25" x2="7.85226" y2="-2.25" transform="matrix(-0.5 -0.866025 -0.866025 0.5 42.7493 50.9802)" stroke="#0C1424" stroke-width="4.5"/>
<circle cx="19.5201" cy="53.8276" r="2.98484" transform="rotate(-150 19.5201 53.8276)" stroke="#0C1424" stroke-width="4.5"/>
<line x1="20.3408" y1="50.5234" x2="24.2669" y2="43.7232" stroke="#0C1424" stroke-width="4.5"/>
<circle cx="5.23484" cy="5.23484" r="2.98484" transform="matrix(-0.866025 -0.5 -0.5 0.866025 51.5109 6.21338)" stroke="#0C1424" stroke-width="4.5"/>
<line y1="-2.25" x2="7.85226" y2="-2.25" transform="matrix(-0.5 0.866025 0.866025 0.5 43.8575 11.6172)" stroke="#0C1424" stroke-width="4.5"/>
<circle cx="31.4969" cy="31.0928" r="13.9339" stroke="#0C1424" stroke-width="4.85"/>
<path d="M37.7476 27.511C39.7353 30.9537 38.5557 35.3559 35.113 37.3435C31.6703 39.3312 27.2681 38.1516 25.2805 34.7089C23.2929 31.2662 24.4724 26.864 27.9151 24.8764C29.7252 23.8313 31.8006 23.6618 33.6507 24.2365" stroke="#0C1424" stroke-width="4.5"/>
</svg>
