<svg width="65" height="73" viewBox="0 0 65 73" fill="none" xmlns="http://www.w3.org/2000/svg">
<path d="M2.89093 40.4985C2.89093 56.7468 16.2196 69.9187 32.6614 69.9187C49.1032 69.9187 62.4319 56.7468 62.4319 40.4985" stroke="#0C1424" stroke-width="4.84915"/>
<path d="M61.9728 32.1343C61.9728 15.886 48.6441 2.71411 32.2024 2.71411C15.7606 2.71411 2.43188 15.886 2.43188 32.1343" stroke="#0C1424" stroke-width="4.84915"/>
<path d="M29.5597 19.0675C20.1976 19.0675 12.6081 26.8087 12.6081 36.3581C12.6081 45.9074 20.1976 53.6487 29.5597 53.6487" stroke="#0C1424" stroke-width="4.5"/>
<path d="M35.6539 52.9688C45.016 52.9688 52.6055 45.3793 52.6055 36.0172C52.6055 26.6551 45.016 19.0657 35.6539 19.0657" stroke="#0C1424" stroke-width="4.5"/>
<path d="M40.2768 36.3584C40.2768 40.0949 37.1119 43.2623 33.034 43.2623C28.956 43.2623 25.7911 40.0949 25.7911 36.3584C25.7911 32.622 28.956 29.4546 33.034 29.4546C37.1119 29.4546 40.2768 32.622 40.2768 36.3584Z" stroke="#0C1424" stroke-width="4.5"/>
</svg>
